<?xml version="1.0"?>
<svg xmlns="http://www.w3.org/2000/svg" id="Capa_1" enable-background="new 0 0 512.085 512.085" height="512px" viewBox="0 0 512.085 512.085" width="512px"><g><g><path d="m227.996 193.102h56.094c12.421 0 22.525-10.105 22.525-22.527v-9.017c0-26.331-23.159-48.576-50.572-48.576-8.063 0-16.189 2.007-23.497 5.803-3.676 1.909-5.108 6.437-3.198 10.112 1.909 3.677 6.438 5.108 10.112 3.198 5.182-2.69 10.916-4.113 16.583-4.113 18.95 0 35.572 15.689 35.572 33.576v9.017c0 4.15-3.376 7.527-7.525 7.527h-56.094c-4.149 0-7.524-3.377-7.524-7.527.079-4.36-.367-11.65.78-15.836.937-4.035-1.575-8.065-5.609-9.002-4.04-.941-8.065 1.575-9.002 5.609-1.501 5.613-1.143 13.417-1.169 19.229-.001 12.421 10.104 22.527 22.524 22.527z" data-original="#000000" class="active-path" data-old_color="#000000" fill="#F8033E"/><path d="m256.48 102.435c16.528 0 29.976-13.449 29.976-29.979 0-16.531-13.447-29.98-29.976-29.98s-29.977 13.449-29.977 29.98c0 16.529 13.448 29.979 29.977 29.979zm0-44.96c8.258 0 14.976 6.72 14.976 14.98s-6.718 14.979-14.976 14.979-14.977-6.72-14.977-14.979c0-8.261 6.719-14.98 14.977-14.98z" data-original="#000000" class="active-path" data-old_color="#000000" fill="#F8033E"/><path d="m432.895 418.752c-3.921 1.336-6.017 5.598-4.681 9.519 1.082 3.176 1.631 6.472 1.631 9.796v9.017c0 4.15-3.375 7.527-7.524 7.527h-56.094c-4.149 0-7.525-3.377-7.525-7.527v-9.017c0-17.887 16.623-33.576 35.572-33.576 4.808 0 9.546.986 14.084 2.931 3.807 1.631 8.217-.133 9.848-3.939 1.632-3.807-.132-8.216-3.939-9.848-6.415-2.749-13.142-4.144-19.992-4.144-27.413 0-50.572 22.245-50.572 48.576v9.017c0 12.422 10.104 22.527 22.525 22.527h56.094c12.42 0 22.524-10.105 22.524-22.527v-9.017c0-4.974-.818-9.896-2.432-14.634-1.335-3.921-5.598-6.012-9.519-4.681z" data-original="#000000" class="active-path" data-old_color="#000000" fill="#F8033E"/><path d="m394.71 378.943c16.528 0 29.976-13.449 29.976-29.979 0-16.531-13.447-29.98-29.976-29.98s-29.977 13.449-29.977 29.98c.001 16.53 13.448 29.979 29.977 29.979zm0-44.96c8.258 0 14.976 6.72 14.976 14.98s-6.718 14.979-14.976 14.979-14.977-6.72-14.977-14.979c.001-8.26 6.72-14.98 14.977-14.98z" data-original="#000000" class="active-path" data-old_color="#000000" fill="#F8033E"/><path d="m414.152 278.195c-2.803-43.57-20.448-81.74-51.278-110.869 7.013-15.068 10.938-31.852 10.938-49.538 0-64.948-52.831-117.788-117.77-117.788-64.938 0-117.769 52.84-117.769 117.788 0 17.8 3.976 34.686 11.073 49.828-30.622 29.075-48.153 67.11-50.962 110.504-55.726 9.291-98.343 57.846-98.343 116.177 0 64.948 52.831 117.788 117.77 117.788 42.042 0 79.003-22.152 99.845-55.395 24.006 4.795 51.883 4.964 76.186-.938 20.731 33.765 57.993 56.333 100.431 56.333 64.938 0 117.769-52.84 117.769-117.788 0-58.173-42.386-106.624-97.89-116.102zm-158.11-263.195c56.667 0 102.77 46.11 102.77 102.788s-46.103 102.788-102.77 102.788-102.769-46.11-102.769-102.788 46.102-102.788 102.769-102.788zm-138.23 482.085c-56.667 0-102.77-46.11-102.77-102.788s46.103-102.788 102.77-102.788 102.77 46.11 102.77 102.788-46.103 102.788-102.77 102.788zm126.033-52.205c-7.136-.499-13.042-1.058-18.739-2.034 6.726-14.811 10.476-31.25 10.476-48.549.144-66.434-55.68-120.275-122.053-117.702 2.958-37.164 17.819-69.87 43.33-95.358 20.957 32.658 57.587 54.34 99.184 54.34 41.712 0 78.426-21.803 99.354-54.611 25.682 25.532 40.643 58.343 43.608 95.647-66.519-2.845-122.659 51.092-122.5 117.685 0 16.97 3.613 33.11 10.1 47.7-13.988 2.916-28.333 3.892-42.76 2.882zm150.429 52.205c-56.667 0-102.77-46.11-102.77-102.788s46.103-102.788 102.77-102.788 102.769 46.11 102.769 102.788-46.102 102.788-102.769 102.788z" data-original="#000000" class="active-path" data-old_color="#000000" fill="#F8033E"/><path d="m117.812 389.49c-27.413 0-50.572 22.245-50.572 48.576v9.017c0 12.422 10.104 22.527 22.525 22.527h10.741c4.143 0 7.5-3.357 7.5-7.5s-3.357-7.5-7.5-7.5h-10.741c-4.149 0-7.525-3.377-7.525-7.527v-9.017c0-17.887 16.623-33.576 35.572-33.576s35.572 15.689 35.572 33.576v9.017c0 4.15-3.376 7.527-7.525 7.527h-10.294c-4.143 0-7.5 3.357-7.5 7.5s3.357 7.5 7.5 7.5h10.294c12.421 0 22.525-10.105 22.525-22.527v-9.017c0-26.331-23.159-48.576-50.572-48.576z" data-original="#000000" class="active-path" data-old_color="#000000" fill="#F8033E"/><path d="m118.249 378.943c16.529 0 29.977-13.449 29.977-29.979 0-16.531-13.447-29.98-29.977-29.98-16.528 0-29.976 13.449-29.976 29.98 0 16.53 13.447 29.979 29.976 29.979zm0-44.96c8.258 0 14.977 6.72 14.977 14.98s-6.719 14.979-14.977 14.979-14.976-6.72-14.976-14.979c0-8.26 6.718-14.98 14.976-14.98z" data-original="#000000" class="active-path" data-old_color="#000000" fill="#F8033E"/></g></g> </svg>
